HIERARCHY
ROOT joint_0
{
	OFFSET 0.000000 0.000000 0.000000
	CHANNELS 6 Xposition Yposition Zposition Zrotation Yrotation Xrotation 
	JOINT joint_1
	{
		OFFSET 5.091736 1.614004 124.993042
		CHANNELS 3 Zrotation Yrotation Xrotation
		JOINT joint_2
		{
			OFFSET -7.754517 4.363039 113.797974
			CHANNELS 3 Zrotation Yrotation Xrotation
			JOINT joint_3
			{
				OFFSET -8.706238 5.370684 113.558960
				CHANNELS 3 Zrotation Yrotation Xrotation
				JOINT joint_4
				{
					OFFSET 2.800659 5.843341 158.209106
					CHANNELS 3 Zrotation Yrotation Xrotation
					JOINT joint_5
					{
						OFFSET 20.525452 8.617594 92.185913
						CHANNELS 3 Zrotation Yrotation Xrotation
						End Site
						{
							OFFSET 0.000000 0.000000 0.000000
						}
					}
				}
				JOINT joint_6
				{
					OFFSET -4.183167 -30.671114 90.057007
					CHANNELS 3 Zrotation Yrotation Xrotation
					JOINT joint_7
					{
						OFFSET -24.729675 -138.200195 -6.097900
						CHANNELS 3 Zrotation Yrotation Xrotation
						JOINT joint_8
						{
							OFFSET 16.966858 -51.567780 -315.633057
							CHANNELS 3 Zrotation Yrotation Xrotation
							JOINT joint_9
							{
								OFFSET 129.835388 -40.459091 176.646973
								CHANNELS 3 Zrotation Yrotation Xrotation
								End Site
								{
									OFFSET 0.000000 0.000000 0.000000
								}
							}
						}
					}
				}
				JOINT joint_10
				{
					OFFSET 7.338745 37.199406 87.346069
					CHANNELS 3 Zrotation Yrotation Xrotation
					JOINT joint_11
					{
						OFFSET 20.327698 137.488367 -20.779053
						CHANNELS 3 Zrotation Yrotation Xrotation
						JOINT joint_12
						{
							OFFSET 150.763062 48.206573 -278.419922
							CHANNELS 3 Zrotation Yrotation Xrotation
							JOINT joint_13
							{
								OFFSET 12.571289 -162.355251 152.253906
								CHANNELS 3 Zrotation Yrotation Xrotation
								End Site
								{
									OFFSET 0.000000 0.000000 0.000000
								}
							}
						}
					}
				}
			}
		}
	}
	JOINT joint_14
	{
		OFFSET -7.600342 -77.970001 -95.010986
		CHANNELS 3 Zrotation Yrotation Xrotation
		JOINT joint_15
		{
			OFFSET -2.666199 -21.455009 -443.700989
			CHANNELS 3 Zrotation Yrotation Xrotation
			JOINT joint_16
			{
				OFFSET -22.487976 -19.310196 -481.059006
				CHANNELS 3 Zrotation Yrotation Xrotation
				JOINT joint_17
				{
					OFFSET 177.776611 65.723053 -82.445997
					CHANNELS 3 Zrotation Yrotation Xrotation
					End Site
					{
						OFFSET 0.000000 0.000000 0.000000
					}
				}
			}
		}
	}
	JOINT joint_18
	{
		OFFSET 17.063904 75.900681 -95.447021
		CHANNELS 3 Zrotation Yrotation Xrotation
		JOINT joint_19
		{
			OFFSET -21.510803 8.101997 -443.629944
			CHANNELS 3 Zrotation Yrotation Xrotation
			JOINT joint_20
			{
				OFFSET -7.473022 -28.501774 -481.230011
				CHANNELS 3 Zrotation Yrotation Xrotation
				JOINT joint_21
				{
					OFFSET 177.760559 -64.115177 -83.737001
					CHANNELS 3 Zrotation Yrotation Xrotation
					End Site
					{
						OFFSET 0.000000 0.000000 0.000000
					}
				}
			}
		}
	}
}
MOTION
Frames: 8
Frame Time: 0.016667
227.810532 -81.670319 1133.449951 16.555670 6.417816 2.316670 -1.503094 1.546345 6.820719 -1.473689 -0.148630 -1.055284 -1.261025 0.252573 1.317875 -0.459676 -8.022009 4.570027 0.000000 0.000000 0.000000 1.718818 8.944547 3.430055 5.950957 7.124621 2.738177 2.801942 32.395226 0.496826 0.000000 0.000000 0.000000 -3.271213 11.553967 2.476271 18.106797 21.127221 -18.286044 42.490956 37.630165 27.369088 0.000000 0.000000 0.000000 -15.042093 -25.275166 -7.624826 -17.325131 9.921105 -4.335252 -18.070846 13.972428 -12.905859 0.000000 0.000000 0.000000 -5.258121 0.609882 4.066746 -4.962836 16.257555 7.787506 -3.013565 0.059009 -1.190923 0.000000 0.000000 0.000000 
240.168350 -88.950546 1128.953003 17.440837 6.221356 2.590345 -1.480270 1.743165 6.493171 -1.349473 -0.172353 -0.966613 -1.152046 0.323249 1.233518 -0.394459 -7.832114 4.170576 0.000000 0.000000 0.000000 1.630645 9.282132 3.317606 5.788888 7.250909 3.288795 2.707666 32.885558 0.554111 0.000000 0.000000 0.000000 -3.257298 11.176577 2.193733 17.992615 20.812599 -18.934185 42.641808 38.159344 26.897562 0.000000 0.000000 0.000000 -14.076817 -24.805225 -8.496305 -16.253123 10.428891 -4.036393 -16.926436 15.836650 -13.107457 0.000000 0.000000 0.000000 -5.805465 1.086565 4.617779 -5.398826 16.629689 7.558369 -3.403332 -0.465584 -1.526805 0.000000 0.000000 0.000000 
253.345825 -97.098633 1123.462036 18.461355 5.955357 2.824877 -1.510649 1.878749 6.138244 -1.252017 -0.196584 -0.911960 -1.058019 0.368617 1.174966 -0.337711 -7.392324 3.766692 0.000000 0.000000 0.000000 1.700097 9.804579 3.041808 5.639523 7.509303 4.054611 2.727435 33.065408 0.313780 0.000000 0.000000 0.000000 -3.322591 10.986504 2.065047 18.007231 20.673124 -19.106289 43.130175 38.590536 27.245287 0.000000 0.000000 0.000000 -13.714992 -24.009486 -8.812026 -15.974046 11.189132 -4.356389 -16.612226 13.749273 -12.165650 0.000000 0.000000 0.000000 -6.733793 1.067235 5.223373 -6.177049 18.020184 7.390195 -4.055887 -1.178346 -2.027663 0.000000 0.000000 0.000000 
267.371826 -106.182640 1117.015991 19.694942 5.596053 3.048252 -1.594188 1.983386 5.722951 -1.187981 -0.240659 -0.874770 -0.988674 0.392441 1.124709 -0.288159 -6.684454 3.338465 0.000000 0.000000 0.000000 1.874758 10.546138 2.622054 5.460477 7.923566 5.151866 2.830362 33.060401 -0.173610 0.000000 0.000000 0.000000 -3.428665 10.888947 2.081316 18.116059 20.649570 -18.953961 44.008748 38.981906 28.380376 0.000000 0.000000 0.000000 -13.864298 -22.893227 -8.721785 -16.350338 12.234097 -5.160088 -16.995551 8.803157 -10.476817 0.000000 0.000000 0.000000 -7.994606 0.694036 5.879854 -7.264075 20.173953 7.218820 -4.992403 -1.978264 -2.659889 0.000000 0.000000 0.000000 
280.710052 -115.036682 1111.406982 20.895280 5.273591 3.115274 -1.688101 2.094015 5.506836 -1.128325 -0.285630 -0.847756 -0.914927 0.408873 1.109255 -0.194748 -6.152662 2.781737 0.000000 0.000000 0.000000 2.117285 11.213104 2.244384 5.348521 8.309717 5.900726 2.984178 33.086145 -0.775192 0.000000 0.000000 0.000000 -3.475055 10.813529 1.939962 18.307395 20.639815 -18.653350 44.805318 39.366104 29.380327 0.000000 0.000000 0.000000 -14.213867 -21.931633 -8.201215 -16.942486 13.330069 -6.215000 -17.671426 4.149868 -9.040477 0.000000 0.000000 0.000000 -9.190726 -0.016128 6.564289 -8.291500 22.772229 7.016164 -5.875157 -2.185099 -3.044821 0.000000 0.000000 0.000000 
292.318787 -122.847298 1107.909058 21.790449 5.151485 2.817951 -1.749837 2.106301 5.875857 -1.037977 -0.270677 -0.883518 -0.793041 0.418048 1.160520 0.000201 -6.146775 1.918430 0.000000 0.000000 0.000000 2.465241 11.634270 2.009842 5.397878 8.572050 5.701043 3.182055 33.212837 -1.434037 0.000000 0.000000 0.000000 -3.351521 10.751572 1.297482 18.620706 20.568802 -18.198577 45.102020 39.833013 29.500429 0.000000 0.000000 0.000000 -14.474097 -21.564053 -7.037530 -17.423070 14.520110 -7.473768 -18.329256 1.621129 -8.384322 0.000000 0.000000 0.000000 -9.966157 -1.125890 7.376478 -8.897641 25.720681 6.728908 -6.292587 -1.168916 -2.803496 0.000000 0.000000 0.000000 
302.787170 -130.061234 1105.838989 22.523593 5.178544 2.204832 -1.823214 2.010587 6.760959 -0.939184 -0.207910 -0.999610 -0.641106 0.403351 1.265463 0.266667 -6.483555 0.768181 0.000000 0.000000 0.000000 2.928418 11.940543 1.856383 5.569106 8.800146 4.796360 3.432963 33.327090 -2.202785 0.000000 0.000000 0.000000 -3.090378 10.713998 0.269592 19.057321 20.479168 -17.509616 45.061984 40.396293 29.080584 0.000000 0.000000 0.000000 -14.775014 -21.588173 -5.254679 -17.945729 15.861690 -9.011034 -19.131572 0.121905 -8.162584 0.000000 0.000000 0.000000 -10.476716 -2.631736 8.339240 -9.226496 29.076746 6.397655 -6.345870 0.991881 -2.011023 0.000000 0.000000 0.000000 
312.199646 -136.845627 1104.812988 23.285536 5.209072 1.686074 -1.907139 2.034754 7.445249 -0.803059 -0.170074 -1.078332 -0.453913 0.410556 1.345428 0.481800 -6.907828 -0.232010 0.000000 0.000000 0.000000 3.283089 12.112807 1.798435 5.754113 8.917096 3.816153 3.635103 33.500945 -2.822909 0.000000 0.000000 0.000000 -2.886049 10.614598 -0.551483 19.386141 20.415306 -17.065662 44.958359 40.953465 28.542060 0.000000 0.000000 0.000000 -15.079870 -21.721145 -3.654899 -18.453188 17.172293 -10.416680 -19.933109 -0.838844 -8.128611 0.000000 0.000000 0.000000 -11.157330 -4.347603 9.047081 -9.782026 32.449813 6.333777 -6.724610 3.554851 -1.182591 0.000000 0.000000 0.000000 
